# xmcd CD database file
#
# Track frame offsets:
#	150
#	26293
#	41819
#	60392
#	75765
#	93803
#	112587
#	135135
#	157083
#	172987
#	193944
#	211762
#	232895
#	254845
#	276343
#	294657
#	315277
#	333307
#
# Disc length: 4698 seconds
#
# Revision: 0
# Processed by: cddbd v1.5PL3 Copyright (c) Steve Scherf et al.
# Submitted via: Feurio! 1.67 - http://www.feurio.com
#
DISCID=e3125812
DTITLE=Zucchero - Zu&Co
DYEAR=1900
DGENRE=Blues
TTITLE0=zucchero - dune mosse
TTITLE1=zucchero - muoio per te
TTITLE2=zucchero - everybodys got to learn sometime
TTITLE3=zucchero - mama get real
TTITLE4=zucchero - like the sun
TTITLE5=zucchero - baila morena
TTITLE6=zucchero - i lay down
TTITLE7=zucchero - blue
TTITLE8=zucchero - pure love
TTITLE9=zucchero - a wonderful world
TTITLE10=zucchero - pippo-nasty guy
TTITLE11=zucchero - hey man-sing a song
TTITLE12=zucchero - the flight
TTITLE13=zucchero - cosi celeste
TTITLE14=zucchero - a devil in me
TTITLE15=zucchero - without a woman
TTITLE16=zucchero - il mare
TTITLE17=zucchero - miserere
EXTD=International version
EXTT0=
EXTT1=
EXTT2=
EXTT3=
EXTT4=
EXTT5=
EXTT6=
EXTT7=
EXTT8=
EXTT9=
EXTT10=
EXTT11=
EXTT12=
EXTT13=
EXTT14=
EXTT15=
EXTT16=
EXTT17=
PLAYORDER=
